# xmcd CD database file
#
# Track frame offsets:
#	150
#	52966
#	79904
#	107389
#	128684
#	152000
#	182073
#	201450
#	219970
#	249559
#	277732
#	302184
#	330123
#
# Disc length: 4791 seconds
#
# Revision: 0
# Processed by: cddbd v1.5.2PL0 Copyright (c) Steve Scherf et al.
# Submitted via: CDex 1.51
#
DISCID=a512b50d
DTITLE=Lizz Wright - 2008-10-29 Live at Paradiso
DYEAR=2008
DGENRE=Jazz
TTITLE0=Lizz Wright - Eternity
TTITLE1=Lizz Wright - Old Man
TTITLE2=Lizz Wright - Idolize You
TTITLE3=Lizz Wright - My Heart
TTITLE4=Lizz Wright - Stop
TTITLE5=Lizz Wright - Walk With Me
TTITLE6=Lizz Wright - Dreaming Wide Awake
TTITLE7=Lizz Wright - Hit The Ground
TTITLE8=Lizz Wright - Leave Me Standing
TTITLE9=Lizz Wright - Coming Home
TTITLE10=Lizz Wright - Speak Your Heart
TTITLE11=Lizz Wright - Salt
TTITLE12=Lizz Wright - Mia
EXTD=YEAR: 2008
EXTT0=
EXTT1=
EXTT2=
EXTT3=
EXTT4=
EXTT5=
EXTT6=
EXTT7=
EXTT8=
EXTT9=
EXTT10=
EXTT11=
EXTT12=
PLAYORDER=
